<svg width="70" height="29" viewBox="0 0 70 29" fill="none" xmlns="http://www.w3.org/2000/svg">
<path d="M16.9016 19.06C16.9016 20.68 16.3016 22.06 15.1016 23.2C13.9216 24.32 12.2016 25 9.94164 25.24V28.6H7.48164V25.27C6.00164 25.17 4.60164 24.9 3.28164 24.46C1.96164 24.02 0.911642 23.46 0.131642 22.78L1.48164 19.75C2.22164 20.35 3.12164 20.86 4.18164 21.28C5.24164 21.68 6.34164 21.93 7.48164 22.03V16.03C6.06164 15.69 4.87164 15.32 3.91164 14.92C2.97164 14.5 2.18164 13.9 1.54164 13.12C0.901642 12.32 0.581642 11.27 0.581642 9.97C0.581642 8.35 1.17164 6.97 2.35164 5.83C3.53164 4.69 5.24164 4.01 7.48164 3.79V0.399998H9.94164V3.73C11.0616 3.79 12.1516 3.98 13.2116 4.3C14.2916 4.62 15.2316 5.04 16.0316 5.56L14.8016 8.59C13.2816 7.71 11.6616 7.17 9.94164 6.97V13.03C11.3816 13.37 12.5716 13.74 13.5116 14.14C14.4716 14.54 15.2716 15.14 15.9116 15.94C16.5716 16.72 16.9016 17.76 16.9016 19.06ZM4.45164 9.79C4.45164 10.45 4.71164 10.98 5.23164 11.38C5.75164 11.78 6.50164 12.12 7.48164 12.4V7.06C6.46164 7.22 5.70164 7.54 5.20164 8.02C4.70164 8.5 4.45164 9.09 4.45164 9.79ZM9.94164 21.97C11.0016 21.81 11.7816 21.5 12.2816 21.04C12.8016 20.58 13.0616 20.01 13.0616 19.33C13.0616 18.65 12.7916 18.11 12.2516 17.71C11.7116 17.29 10.9416 16.94 9.94164 16.66V21.97ZM23.5359 7.3H16.5759V4H34.3959V7.3H27.4359V25H23.5359V7.3ZM36.1227 4H40.0227V25H36.1227V4ZM51.7328 16.21L48.4028 19.63V25H44.5028V4H48.4028V14.77L58.7828 4H63.1628L54.3428 13.39L63.7028 25H59.1428L51.7328 16.21ZM65.1583 4H69.0583V25H65.1583V4Z" fill="white"/>
</svg>
