<svg width="33" height="33" viewBox="0 0 33 33" fill="none" xmlns="http://www.w3.org/2000/svg">
<g clip-path="url(#clip0_450_525)">
<path fill-rule="evenodd" clip-rule="evenodd" d="M6.21129 5.19877C5.69869 2.55825 7.74909 0.12085 10.4146 0.12085C12.7725 0.12085 14.7204 2.05046 14.7204 4.38631V9.66735C15.3355 9.66735 15.9507 9.56579 16.5658 9.56579C17.1809 9.56579 17.6935 9.56579 18.3086 9.66735V4.38631C18.3086 2.05046 20.2565 0.12085 22.6144 0.12085C25.2799 0.12085 27.3303 2.55825 26.9202 5.19877L25.7925 11.3938C29.7908 13.1203 32.8664 16.1671 32.8664 19.9248V22.2606C32.8664 25.4089 30.816 28.0494 27.8429 29.7759C24.8699 31.604 20.9741 32.6196 16.5658 32.6196C12.1574 32.6196 8.26168 31.604 5.28862 29.7759C2.41807 28.0494 0.367676 25.4089 0.367676 22.2606V19.9248C0.367676 16.1671 3.34074 13.1203 7.33901 11.3938L6.21129 5.19877ZM24.2547 12.2063L25.5875 4.8941C25.8951 3.06605 24.5623 1.33955 22.6144 1.33955C20.9741 1.33955 19.6414 2.65981 19.6414 4.28475V10.9876C19.2313 10.886 18.7187 10.886 18.3086 10.886C17.6935 10.886 17.1809 10.7845 16.5658 10.7845C15.9507 10.7845 15.3355 10.7845 14.7204 10.886C14.3103 10.886 13.7977 10.9876 13.3877 10.9876V4.38631C13.3877 2.76137 12.0549 1.44111 10.4146 1.44111C8.56924 1.44111 7.13397 3.1676 7.54405 4.99566L8.8768 12.3079C4.57098 13.9328 1.70043 16.7764 1.70043 20.0263V22.3622C1.70043 27.3385 8.3642 31.4009 16.5658 31.4009C24.7673 31.4009 31.4311 27.3385 31.4311 22.3622V20.0263C31.5336 16.6749 28.6631 13.8312 24.2547 12.2063Z" fill="#633001"/>
<path d="M31.5337 22.2606C31.5337 27.237 24.8699 31.2994 16.6683 31.2994C8.46675 31.2994 1.80298 27.237 1.80298 22.2606V19.9248H31.6362V22.2606H31.5337Z" fill="#FEDC90"/>
<path fill-rule="evenodd" clip-rule="evenodd" d="M7.54408 4.99571C7.134 3.16766 8.56927 1.44116 10.4146 1.44116C12.0549 1.44116 13.3877 2.76142 13.3877 4.38636V11.0892C14.4129 10.9877 15.4381 10.8861 16.5658 10.8861C17.591 10.8861 18.6162 10.9877 19.6414 11.0892V4.38636C19.6414 2.76142 20.9741 1.44116 22.6145 1.44116C24.4598 1.44116 25.8951 3.16766 25.5875 4.99571L24.2548 12.3079C28.5606 13.9329 31.5337 16.7765 31.5337 20.0264C31.5337 25.0027 24.8699 29.0651 16.6683 29.0651C8.46675 29.0651 1.80298 25.0027 1.80298 20.0264C1.80298 16.7765 4.67353 13.9329 8.97935 12.3079L7.54408 4.99571Z" fill="#D1884F"/>
<path d="M12.465 19.3155C12.465 20.6357 11.7474 21.7529 10.8247 21.7529C9.90202 21.7529 9.18439 20.6357 9.18439 19.3155C9.18439 17.9952 9.90202 16.8781 10.8247 16.8781C11.7474 16.8781 12.465 17.9952 12.465 19.3155Z" fill="#633001"/>
<path d="M23.8447 19.3155C23.8447 20.6357 23.1271 21.7529 22.2044 21.7529C21.2817 21.7529 20.5641 20.6357 20.5641 19.3155C20.5641 17.9952 21.2817 16.8781 22.2044 16.8781C23.1271 16.8781 23.8447 17.9952 23.8447 19.3155Z" fill="#633001"/>
</g>
<defs>
<clipPath id="clip0_450_525">
<rect width="32.4987" height="32.4987" fill="white" transform="translate(0.367676 0.12085)"/>
</clipPath>
</defs>
</svg>
