<svg width="37" height="37" viewBox="0 0 37 37" fill="none" xmlns="http://www.w3.org/2000/svg">
<path d="M29.2951 8.16809H23.6001C23.0465 8.16809 22.7301 8.80087 23.1255 9.19636L24.9448 11.0156L14.5039 21.3774L10.8655 17.7389L9.91628 16.7897C9.59989 16.4733 9.04621 16.4733 8.72982 16.7897L2.48113 23.0384C2.16474 23.3548 2.16474 23.9085 2.48113 24.2249L3.50939 25.174C3.82578 25.4904 4.30037 25.4904 4.69585 25.174L9.2835 20.5073L13.9503 25.174C14.2666 25.4904 14.8203 25.4904 15.1367 25.174L15.6113 24.6203H15.6904L27.0804 13.1512L28.8997 14.9705C29.2951 15.366 29.9279 15.0496 29.9279 14.4959V8.80087C29.9279 8.48448 29.6906 8.16809 29.2951 8.16809Z" fill="#AFB9D2"/>
<path d="M22.4137 19.7954V34.9821C22.4137 35.4567 22.8092 35.8522 23.2838 35.8522H25.9731C26.4477 35.8522 26.8432 35.4567 26.8432 34.9821V15.4451L22.4137 19.7954Z" fill="#78D2BE"/>
<path d="M16.7186 25.4904V34.9821C16.7186 35.4566 17.1141 35.8521 17.5887 35.8521H20.278C20.7526 35.8521 21.1481 35.4566 21.1481 34.9821V21.14L16.7186 25.4904Z" fill="#A5D76E"/>
<path d="M14.5039 26.756C13.9502 26.756 13.3965 26.5187 12.922 26.1232L11.0236 24.2249V34.9821C11.0236 35.4567 11.4191 35.8522 11.8937 35.8522H14.583C15.0576 35.8522 15.4531 35.4567 15.4531 34.9821V26.5978C15.1367 26.756 14.8203 26.756 14.5039 26.756Z" fill="#FFC36E"/>
<path d="M9.28354 22.4847L5.64506 26.1232L5.32867 26.4396V34.9821C5.32867 35.4567 5.72416 35.8522 6.19875 35.8522H8.88806C9.36264 35.8522 9.75813 35.4567 9.75813 34.9821V22.9593L9.28354 22.4847Z" fill="#D2555A"/>
</svg>
